<svg xmlns="http://www.w3.org/2000/svg"  viewBox="0 0 24 24" width="24px" height="24px" fill='white'><path d="M17,3H7C4.8,3,3,4.8,3,7v10c0,2.2,1.8,4,4,4h10c2.2,0,4-1.8,4-4V7C21,4.8,19.2,3,17,3z M15.54,18 c-0.33,0-0.65-0.17-0.83-0.45l-3.23-4.83L10,14.6V17c0,0.55-0.3,1-0.67,1H8.67C8.3,18,8,17.55,8,17V7c0-0.55,0.3-1,0.67-1h0.66 C9.7,6,10,6.45,10,7v3.83l3.7-4.47C13.888,6.132,14.168,6,14.464,6l0.289,0c0.838-0.001,1.306,0.968,0.783,1.624L12.93,10.89 l3.709,5.555C17.083,17.109,16.607,18,15.808,18H15.54z"/></svg>